<?xml version="1.0" encoding="UTF-8" standalone="no"?>
<!-- Created with Inkscape (http://www.inkscape.org/) -->

<svg
   width="210mm"
   height="60mm"
   viewBox="0 0 210 60"
   version="1.1"
   id="svg1"
   xml:space="preserve"
   inkscape:version="1.4.2 (ebf0e94, 2025-05-08)"
   sodipodi:docname="astracloud_logo_ori.svg"
   xmlns:inkscape="http://www.inkscape.org/namespaces/inkscape"
   xmlns:sodipodi="http://sodipodi.sourceforge.net/DTD/sodipodi-0.dtd"
   xmlns="http://www.w3.org/2000/svg"
   xmlns:svg="http://www.w3.org/2000/svg"><sodipodi:namedview
     id="namedview1"
     pagecolor="#414141"
     bordercolor="#000000"
     borderopacity="0.25"
     inkscape:showpageshadow="2"
     inkscape:pageopacity="0.0"
     inkscape:pagecheckerboard="0"
     inkscape:deskcolor="#d1d1d1"
     inkscape:document-units="mm"
     inkscape:zoom="1.4142136"
     inkscape:cx="359.21024"
     inkscape:cy="109.9551"
     inkscape:window-width="1920"
     inkscape:window-height="1057"
     inkscape:window-x="-8"
     inkscape:window-y="-8"
     inkscape:window-maximized="1"
     inkscape:current-layer="svg1"
     showguides="true"><sodipodi:guide
       position="102.31107,11.585384"
       orientation="0,-1"
       id="guide1"
       inkscape:locked="false" /></sodipodi:namedview><defs
     id="defs1" /><path
     style="display:inline;fill:#666666;fill-opacity:1;stroke-width:0.264583"
     d="m 61.976401,23.430271 c -38.790323,-41.860227 49.226729,-7.735049 73.978179,-6.886268 5.71107,0.195845 11.774,0.27101 16.92055,2.754508 0.87808,0.423722 1.26799,1.58374 2.16425,1.967503 5.0772,2.17396 11.09959,0.15736 16.52704,1.180505 4.99423,0.941477 21.84863,4.266204 25.52838,7.771644 3.74053,3.563336 0.68862,10.772087 0.68862,10.772087 l -0.93456,5.558203 -8.06677,3.34476 -3.83664,0.29512 c 0,0 -35.59836,0.34136 -53.34223,1.60469 -8.68204,0.61814 -25.94821,2.92057 -25.94821,2.92057 0,0 -16.749522,0.64934 -24.200309,-2.55775 -6.579685,-2.83214 -12.66783,-7.81302 -16.330292,-13.969286 -2.571452,-4.322379 1.796789,-9.420153 -3.148008,-14.756286 z"
     id="path1"
     sodipodi:nodetypes="ssssssccccscsss"
     inkscape:label="dym_v1" /><path
     id="path9"
     style="display:inline;fill:#666666;stroke-width:0.264583"
     d="M 128.82831,7.2341838 A 26.294361,26.294361 0 0 0 105.114,22.170223 a 16.068777,16.068777 0 0 0 -1.25832,-0.04961 16.068777,16.068777 0 0 0 -15.656929,12.45402 10.295146,10.295146 0 0 0 -6.393925,9.527584 10.295146,10.295146 0 0 0 0.946712,4.312915 H 195.47902 a 14.468855,14.468855 0 0 0 4.30258,-10.295496 14.468855,14.468855 0 0 0 -14.46888,-14.468884 14.468855,14.468855 0 0 0 -3.33985,0.390674 19.37413,19.37413 0 0 0 -17.39687,-10.8474 19.37413,19.37413 0 0 0 -7.57473,1.542024 7.5126743,7.5126743 0 0 0 -6.33036,-3.466971 7.5126743,7.5126743 0 0 0 -5.09323,1.990059 26.294361,26.294361 0 0 0 -16.74937,-6.0249542 z"
     inkscape:label="dym_v2" /><g
     inkscape:label="dym_v3"
     inkscape:groupmode="layer"
     id="layer1"
     style="display:none"><path
       id="path4"
       style="display:inline;fill:#999999;stroke-width:0.264583"
       d="M 128.82831,7.2341838 A 26.294361,26.294361 0 0 0 105.114,22.170223 a 16.068777,16.068777 0 0 0 -1.25832,-0.04961 16.068777,16.068777 0 0 0 -15.656929,12.45402 10.295146,10.295146 0 0 0 -6.393925,9.527584 10.295146,10.295146 0 0 0 0.946712,4.312915 H 195.47902 a 14.468855,14.468855 0 0 0 4.30258,-10.295496 14.468855,14.468855 0 0 0 -14.46888,-14.468884 14.468855,14.468855 0 0 0 -3.33985,0.390674 19.37413,19.37413 0 0 0 -17.39687,-10.8474 19.37413,19.37413 0 0 0 -7.57473,1.542024 7.5126743,7.5126743 0 0 0 -6.33036,-3.466971 7.5126743,7.5126743 0 0 0 -5.09323,1.990059 26.294361,26.294361 0 0 0 -16.74937,-6.0249542 z"
       inkscape:label="better_ori" /><path
       id="path8"
       style="display:inline;fill:#666666;stroke-width:0.264583"
       d="m 147.10833,26.392187 a 4.7624998,4.7624998 0 0 0 -4.58628,3.478341 18.25625,9.1281252 0 0 0 -16.39331,7.786088 8.8633251,8.8633251 0 0 0 -1.59784,-0.145211 8.8633251,8.8633251 0 0 0 -8.86354,8.863025 8.8633251,8.8633251 0 0 0 0.24184,2.039669 h 1.45986 a 8.8633251,8.8633251 0 0 1 -0.0486,-0.901754 8.8633251,8.8633251 0 0 1 8.86354,-8.863541 8.8633251,8.8633251 0 0 1 0.80047,0.03617 18.25625,9.1281252 0 0 1 15.74271,-7.130831 4.5309892,4.5309892 0 0 1 4.45709,-3.714502 4.5309892,4.5309892 0 0 1 4.52634,4.327902 18.25625,9.1281252 0 0 1 10.66343,5.937622 18.25625,9.1281252 0 0 0 -10.52804,-7.433655 4.7624998,4.7624998 0 0 0 -4.7377,-4.279326 z" /><path
       id="path22"
       style="display:inline;fill:#666666;stroke-width:0.264583"
       d="m 141.02292,20.108333 a 18.785416,18.785416 0 0 0 -14.25081,6.545854 4.3656249,4.3656249 0 0 0 -4.13774,-2.973979 4.3656249,4.3656249 0 0 0 -4.36562,4.365625 4.3656249,4.3656249 0 0 0 0.37517,1.770435 15.015104,15.015104 0 0 0 -12.29537,11.462349 4.9609375,4.9609375 0 0 0 -0.18449,-0.0036 4.9609375,4.9609375 0 0 0 -4.96094,4.960937 4.9609375,4.9609375 0 0 0 0.50488,2.180229 h 4.86741 a 4.2143081,4.2143081 0 0 1 -1.04335,-2.776058 4.2143081,4.2143081 0 0 1 4.21421,-4.21473 4.2143081,4.2143081 0 0 1 0.1571,0.0031 12.755306,12.755306 0 0 1 10.44484,-9.736873 3.708591,3.708591 0 0 1 -0.31884,-1.504301 3.708591,3.708591 0 0 1 3.70881,-3.708301 3.708591,3.708591 0 0 1 3.09801,1.669665 20.53828,20.53828 0 0 1 14.08751,-5.59294 20.53828,20.53828 0 0 1 17.97048,10.641728 18.785416,18.785416 0 0 0 -17.87126,-13.089124 z" /><path
       id="path9-5"
       style="display:inline;fill:#666666;stroke-width:0.264583"
       inkscape:label="Kurwa gówno pierodolone"
       d="m 128.82521,7.2341838 a 26.294361,26.294361 0 0 0 -23.71431,14.9360392 16.068777,16.068777 0 0 0 -1.25832,-0.04961 16.068777,16.068777 0 0 0 -15.65693,12.45402 10.295146,10.295146 0 0 0 -6.393925,9.527584 10.295146,10.295146 0 0 0 0.946712,4.312915 h 6.044076 a 9.2368481,9.2368481 0 0 1 -0.84801,-3.866431 9.2368481,9.2368481 0 0 1 5.736601,-8.548315 14.416974,14.416974 0 0 1 14.047206,-11.173995 14.416974,14.416974 0 0 1 1.12913,0.04444 23.591411,23.591411 0 0 1 21.27674,-13.400215 23.591411,23.591411 0 0 1 15.0275,5.405354 6.7404028,6.7404028 0 0 1 4.56975,-1.78542 6.7404028,6.7404028 0 0 1 5.67924,3.110404 17.382551,17.382551 0 0 1 6.79648,-1.383378 17.382551,17.382551 0 0 1 15.60835,9.732223 12.981517,12.981517 0 0 1 2.99672,-0.350367 12.981517,12.981517 0 0 1 12.98112,12.981637 12.981517,12.981517 0 0 1 -3.85713,9.234062 h 5.53971 a 14.468855,14.468855 0 0 0 4.30258,-10.295496 14.468855,14.468855 0 0 0 -14.46888,-14.468884 14.468855,14.468855 0 0 0 -3.33985,0.390674 19.37413,19.37413 0 0 0 -17.39687,-10.8474 19.37413,19.37413 0 0 0 -7.57473,1.542024 7.5126743,7.5126743 0 0 0 -6.33036,-3.466971 7.5126743,7.5126743 0 0 0 -5.09323,1.990059 26.294361,26.294361 0 0 0 -16.74937,-6.0249552 z m 39.05291,13.5356082 a 5.4239583,5.4239583 0 0 0 -0.34261,0.02274 7.233223,7.233223 0 0 1 3.5972,6.251298 7.233223,7.233223 0 0 1 -0.0594,0.926042 7.233223,7.233223 0 0 1 0.72657,-0.03669 7.233223,7.233223 0 0 1 7.23315,7.23315 7.233223,7.233223 0 0 1 -0.001,0.09457 7.233223,7.233223 0 0 1 3.98373,-1.195793 7.233223,7.233223 0 0 1 4.62401,1.688269 4.5640626,4.5640626 0 0 0 -4.34961,-3.209623 4.5640626,4.5640626 0 0 0 -3.11298,1.226282 6.5484376,6.5484376 0 0 0 0.004,-0.234095 6.5484376,6.5484376 0 0 0 -6.54844,-6.548437 6.5484376,6.5484376 0 0 0 -0.39067,0.01189 5.4239583,5.4239583 0 0 0 0.0599,-0.805636 5.4239583,5.4239583 0 0 0 -5.42396,-5.423958 z" /></g><g
     inkscape:groupmode="layer"
     id="layer2"
     inkscape:label="front"
     style="display:inline"><text
       xml:space="preserve"
       style="font-size:22.5778px;text-align:start;writing-mode:lr-tb;direction:ltr;text-anchor:start;display:inline;fill:#ff0000;stroke-width:0.264583"
       x="2.3321035"
       y="50.245941"
       id="text1"><tspan
         sodipodi:role="line"
         id="tspan1"
         style="font-weight:bold;font-size:22.5778px;fill:#ffffff;fill-opacity:1;stroke-width:0.264583"
         x="2.3321035"
         y="50.245941">AstraCloud</tspan></text><path
       id="path2"
       style="display:inline;fill:#ffffff;stroke-width:0.264583"
       inkscape:label="astra"
       d="m 182.43693,25.840569 -6.83731,0.295072 c 0,0 -7.23017,0.68833 -7.96799,0.68833 -0.73781,0 -4.18114,0.49196 -4.18114,0.49196 l -3.00034,0.983919 -1.67224,0.93431 -1.42679,0.98392 -2.45928,2.303218 -2.13786,2.184363 -1.42833,1.722375 c 0,0 0.44129,-0.837699 0.0248,-0.995804 -0.41646,-0.158105 -1.67089,-0.131135 -2.06602,0.245979 -0.39513,0.377114 -0.33205,0.842937 -0.19689,1.18029 0.13516,0.337353 0.78703,0.590145 0.78703,0.590145 h 0.39378 l -3.98426,2.016931 c 0,0 -1.32899,0.651534 -2.4722,1.701705 0.1796,-0.07161 0.52865,-0.03876 0.52865,-0.03876 0,0 0.57784,0.06582 0.84388,0.173632 0.35024,0.141938 0.71018,0.321725 0.95601,0.608749 0.19756,0.230671 0.2955,0.571918 0.36536,0.834574 0.0717,0.269556 0.3179,0.861336 0.39997,1.217496 0.008,0.0368 -0.0237,0.0898 -0.061,0.0956 -0.17066,0.0266 -0.6258,0 -0.6258,0 0,0 -1.6176,0.0176 -1.73064,0.0176 -0.11303,0 -1.54771,-0.061 -1.54771,-0.061 0,0 -0.73822,-0.55436 -0.75189,-0.63459 -1.8e-4,-0.001 -4.8e-4,-0.002 -5.2e-4,-0.004 -0.40118,0.82448 -0.6266,1.61643 -0.67541,2.08928 -0.0203,0.19639 0.0491,0.59015 0.0491,0.59015 0,0 -0.16462,4.05628 0.0491,4.47621 0.10569,0.20768 0.21977,0.47376 0.44287,0.54105 0.2079,0.0627 2.65617,0.1478 2.65617,0.1478 0,0 -0.1162,2.08892 -0.0982,2.26239 0.018,0.17347 0.17037,0.59638 0.39326,0.78703 0.5753,0.49209 1.40783,0.65684 2.16421,0.68885 0.73916,0.0313 1.59,-0.0255 2.16421,-0.49196 0.33597,-0.27294 0.7152,-2.95434 0.7152,-2.95434 l 4.23695,0.0837 6.18205,-0.0548 5.46479,-0.0351 3.37395,-0.0336 c 0,0 0.40295,2.012 0.63666,2.25619 0.23834,0.24903 0.59657,0.3765 0.93482,0.44287 1.46632,0.2877 3.90433,0.0466 4.4757,-0.24598 0.40366,-0.20665 0.88573,-1.03302 0.88573,-1.03302 l 0.55552,-1.6278 14.01258,-1.17099 c 0,0 0.26436,0.96438 0.43409,1.12655 0.34562,0.33023 0.85495,0.4729 1.32808,0.54105 1.45169,0.20909 3.59513,-0.14728 3.59513,-0.14728 0,0 1.07985,-0.21951 1.4211,-0.52658 0.34125,-0.30707 0.0935,-1.83813 0.0935,-1.83813 0,0 3.16978,-0.66586 3.08405,-1.22629 -0.0308,-0.20133 -0.66818,-1.22989 -0.66818,-1.22989 v -6.049767 c 0,0 -0.1722,-3.284927 -0.73794,-4.574915 -0.56574,-1.289988 -2.3611,-3.000333 -2.3611,-3.000333 0,0 -0.28983,-2.265534 -1.0821,-2.951241 -0.48143,-0.416674 -1.86914,-0.393258 -1.86914,-0.393258 l -0.9834,-0.04909 c 0,0 -1.93622,-1.777846 -3.04994,-2.459798 -0.71981,-0.440754 -1.13103,-0.821231 -2.31149,-1.033012 -2.2801,-0.409061 -5.26324,-0.44235 -5.26324,-0.44235 z m 3.56825,1.894458 c 0.48753,0.0085 1.01646,0.04323 1.44901,0.134359 0.6008,0.126573 5.28277,3.044535 6.01307,4.18114 0.19953,0.310534 0.54111,0.590208 0.55346,0.959114 0.008,0.251003 -0.0931,0.60006 -0.33228,0.676445 -2.28822,0.730576 -5.68389,1.02371 -5.68389,1.02371 0,0 -0.12154,-0.187816 -0.15038,-0.222209 -0.0208,-0.02483 -0.1788,-0.359151 -0.1788,-0.359151 l -3.01894,-6.025472 c 0,0 -0.11584,-0.229232 -0.0982,-0.264066 0.0194,-0.03111 0.1599,-0.07547 0.24598,-0.0801 0.26731,-0.01439 0.71344,-0.03226 1.20096,-0.02377 z m -2.11408,0.04754 c 0.1434,-0.0013 0.24282,0.0048 0.25942,0.02326 0.0531,0.05916 0.80718,1.625223 0.80718,1.625223 0,0 0.88532,1.881667 0.95912,2.016932 0.0738,0.135266 1.02061,2.348693 1.02061,2.348693 0,0 0.4213,0.9018 0.29507,1.0573 -0.0531,0.06546 -2.164,0.381567 -2.2624,0.406177 -0.0984,0.0246 -2.82845,0.491545 -2.91455,0.503845 -0.0861,0.0123 -1.57406,0.307475 -1.57406,0.307475 0,0 -0.16408,-0.03251 -0.17208,-0.09819 -0.0171,-0.149852 0.33228,-0.307475 0.33228,-0.307475 l 1.83193,-0.504362 0.93482,-0.28267 c 0.48153,-0.145725 0.57762,-0.71913 0.37672,-1.228866 -0.0578,-0.114601 -0.64906,-0.505788 -0.86868,-0.554488 -0.44036,-0.09764 -1.35289,0.03721 -1.35289,0.03721 0,0 -1.59059,0.350034 -1.75803,0.467155 -0.15326,0.107205 -0.23815,0.324772 -0.41806,0.381372 -0.18138,0.05706 -0.56586,-0.0739 -0.56586,-0.0739 0,0 -1.24199,-0.270403 -1.20509,-0.467155 0.0369,-0.19675 0.57318,-1.637177 0.70073,-2.004529 0.30742,-0.885378 0.43684,-1.245357 0.97152,-2.102714 0.61,-0.978138 1.45086,-1.070121 1.54926,-1.119311 0.0984,-0.04919 1.36533,-0.356568 1.61127,-0.356568 0.18445,0 1.01158,-0.07039 1.44177,-0.07441 z m -8.66769,0.0072 1.30432,0.05219 c 0,0 0.50307,0.04287 0.5736,0.121957 0.0734,0.08232 0.0473,0.224004 0.0176,0.330212 -0.0413,0.147376 -2.59143,6.504377 -2.67838,6.591329 -0.087,0.08695 -0.20114,0.393602 -0.4346,0.486792 -0.10216,0.04078 -0.60871,0.181332 -0.92191,0.225826 -3.57863,0.508398 -7.22527,0.246441 -10.83397,0.452169 -3.29004,0.187561 -9.86038,0.713134 -9.86038,0.713134 0,0 -0.32672,0.04973 -0.45216,-0.03462 -0.0968,-0.06509 -0.10415,-0.206034 -0.0765,-0.31936 0.027,-0.110527 1.60663,-1.784904 1.60663,-1.784904 0,0 1.63,-1.803168 2.5218,-2.626196 0.78109,-0.720855 2.4691,-2.017448 2.4691,-2.017448 0,0 0.4952,-0.42573 0.7829,-0.573609 0.33097,-0.170118 0.91939,-0.317337 1.06092,-0.347782 0.20438,-0.04397 4.90531,-0.70246 5.5299,-0.747758 0.71036,-0.05152 9.39115,-0.521932 9.39115,-0.521932 z m -7.5029,12.576493 c 0,0 0.57963,-0.0091 0.77153,0.05839 0.33879,0.119136 0.48866,0.369348 0.63976,0.626835 0.071,0.120923 0.11058,0.406177 0.11058,0.406177 l 0.0367,1.167887 c 0,0 0.0162,0.303624 5.2e-4,0.331763 l -5.2e-4,5.16e-4 c -0.0456,0.05265 -0.11571,0.08693 -0.18448,0.09818 -0.13355,0.0219 -0.86075,0.0987 -1.02061,0.0987 -0.15986,0 -1.99216,0.12259 -2.17661,0.13488 -0.18445,0.0123 -1.93067,0.0988 -2.17661,0.1111 -0.24593,0.0123 -2.01664,0.13488 -2.10272,0.13488 -0.0861,0 -1.02951,0.0366 -1.28881,0.0424 -0.25929,0.006 -0.44836,-0.0164 -0.45733,-0.0915 0,-0.0553 1.39519,-1.716164 1.43867,-1.78274 0.0269,-0.04119 0.23726,-0.196186 0.29559,-0.234094 0.0615,-0.03997 0.6608,-0.265757 0.71313,-0.28267 0.0523,-0.01689 2.65617,-0.577742 2.65617,-0.577742 0,0 1.06973,-0.192343 1.61075,-0.233578 0.37705,-0.02874 1.1343,-0.0093 1.1343,-0.0093 z" /><path
       style="display:inline;fill:#666666;stroke-width:0.264583"
       d="m 194.48785,26.184777 c 0.90193,0.08021 2.26263,0.147563 2.70532,0.245938 0.44269,0.09838 2.49628,1.930615 2.88978,2.815991 0.3935,0.885377 2.33747,0.508272 2.97584,1.389552 0.48303,0.666827 1.11161,1.499139 0.87308,2.287223 -0.14446,0.477277 -1.08212,1.032942 -1.08212,1.032942 0,0 -0.80672,0.361784 -0.88538,0.737814 -0.17265,0.825369 0.83619,2.115066 1.13132,2.262629 0.29512,0.147564 0.41154,1.504085 0.68862,2.308836 0.27708,0.80475 3.73826,0.642422 0.98376,2.51155 -2.75451,1.869131 -2.65614,3.049631 -2.65614,3.049631 0,0 0.18649,2.47385 -0.49187,3.39395 -0.40749,0.5527 -1.51587,0.83593 -1.86018,0.88512 -0.34432,0.0492 -2.30193,0.21806 -2.30193,0.21806 0,0 2.17645,-0.71325 2.18045,-0.98443 0.004,-0.26677 -2.08208,0.43893 -2.08208,0.43893 0,0 1.5751,-0.51515 1.70273,-1.19712 0.0435,-0.23243 -0.3935,-0.59025 -0.3935,-0.59025 0,0 0.61711,-1.3836 0.59025,-2.11507 -0.016,-0.43536 -0.44269,-1.22969 -0.44269,-1.22969 0,0 0.36853,-1.244482 0.0492,-1.721568 -0.28286,-0.422608 -1.42644,-0.541062 -1.42644,-0.541062 0,0 0.21717,-1.158961 0,-1.672381 -0.30264,-0.715486 -1.67238,-1.62319 -1.67238,-1.62319 0,0 2.30309,-0.752 2.21345,-1.672381 -0.099,-1.016296 -2.75451,-1.34036 -2.75451,-1.34036 0,0 1.69822,-2.090209 1.2051,-3.074229 -0.34661,-0.691665 -2.23804,-0.614844 -2.23804,-0.614844 0,0 0.47489,-1.045137 0.14756,-1.364956 -0.43502,-0.425038 -1.80898,0.238176 -1.80898,0.238176 0,0 -1.18652,-1.561249 -1.91699,-2.20568 -0.68457,-0.603936 -2.26877,-1.617045 -2.26877,-1.617045 0,0 0.0985,0.177765 0.73781,0.07993 0.43964,-0.06728 1.10719,0.05215 1.51867,0.15986 0.43554,0.114003 0.69373,-0.63193 1.13132,-0.737814 0.46461,-0.112423 1.0001,0.106977 1.42644,0.147563 0.42634,0.04059 0.75427,0.06484 1.1313,0.09838 z"
       id="path7"
       sodipodi:nodetypes="ssssscsszscsscscscscscscscscscscssszss"
       inkscape:label="dym_samochod" /></g></svg>
